<svg width="24" height="24" viewBox="0 0 24 24" fill="none" xmlns="http://www.w3.org/2000/svg">
<g clip-path="url(#clip0_7_34)">
<path d="M12 24C9.62662 24 7.30655 23.2962 5.33316 21.9776C3.35977 20.6591 1.8217 18.7849 0.913446 16.5922C0.00519419 14.3995 -0.232446 11.9867 0.230577 9.65891C0.693599 7.33114 1.83649 5.19295 3.51472 3.51472C5.19295 1.83649 7.33114 0.693597 9.65892 0.230574C11.9867 -0.232448 14.3995 0.0051918 16.5922 0.913443C18.7849 1.82169 20.6591 3.35976 21.9776 5.33315C23.2962 7.30654 24 9.62662 24 12C23.9966 15.1815 22.7312 18.2318 20.4815 20.4815C18.2318 22.7312 15.1815 23.9966 12 24V24ZM12 2C10.0222 2 8.08879 2.58649 6.4443 3.6853C4.79981 4.78412 3.51808 6.3459 2.7612 8.17316C2.00433 10.0004 1.8063 12.0111 2.19215 13.9509C2.578 15.8907 3.53041 17.6725 4.92893 19.0711C6.32746 20.4696 8.10929 21.422 10.0491 21.8079C11.9889 22.1937 13.9996 21.9957 15.8268 21.2388C17.6541 20.4819 19.2159 19.2002 20.3147 17.5557C21.4135 15.9112 22 13.9778 22 12C21.9971 9.34873 20.9426 6.80688 19.0679 4.93215C17.1931 3.05741 14.6513 2.00291 12 2V2ZM8 14C7.84394 13.9993 7.68988 14.0351 7.55015 14.1046C7.41042 14.1742 7.28889 14.2754 7.1953 14.4003C7.10171 14.5252 7.03865 14.6702 7.01116 14.8239C6.98367 14.9775 6.99252 15.1354 7.037 15.285C7.39529 16.3325 8.06136 17.2475 8.94809 17.9103C9.83482 18.5731 10.9009 18.9529 12.007 19C13.1135 18.9564 14.1808 18.5778 15.0675 17.9145C15.9542 17.2511 16.6187 16.3342 16.973 15.285C17.013 15.1356 17.0186 14.9791 16.9893 14.8272C16.96 14.6754 16.8966 14.5322 16.8038 14.4084C16.7111 14.2847 16.5914 14.1836 16.4539 14.1129C16.3164 14.0421 16.1646 14.0035 16.01 14H8ZM6 10C6 11 6.895 11 8 11C9.105 11 10 11 10 10C10 9.46957 9.78929 8.96086 9.41421 8.58578C9.03914 8.21071 8.53043 8 8 8C7.46957 8 6.96086 8.21071 6.58579 8.58578C6.21071 8.96086 6 9.46957 6 10V10ZM14 10C14 11 14.895 11 16 11C17.105 11 18 11 18 10C18 9.46957 17.7893 8.96086 17.4142 8.58578C17.0391 8.21071 16.5304 8 16 8C15.4696 8 14.9609 8.21071 14.5858 8.58578C14.2107 8.96086 14 9.46957 14 10Z" fill="#FFAA00"/>
</g>
<defs>
<clipPath id="clip0_7_34">
<rect width="24" height="24" fill="white"/>
</clipPath>
</defs>
</svg>
