<svg width="24" height="24" viewBox="0 0 24 24" fill="none" xmlns="http://www.w3.org/2000/svg">
<g clip-path="url(#clip0_7_30)">
<path d="M20.0002 8.00001C20.0031 6.70487 19.6914 5.4284 19.092 4.28029C18.4927 3.13218 17.6235 2.14675 16.5592 1.40868C15.495 0.67061 14.2674 0.201964 12.9821 0.0430102C11.6967 -0.115944 10.392 0.039548 9.18001 0.496125C7.96801 0.952702 6.88498 1.69671 6.02399 2.66423C5.16299 3.63174 4.54977 4.79383 4.23701 6.05065C3.92425 7.30746 3.92131 8.62142 4.22843 9.87962C4.53556 11.1378 5.14357 12.3026 6.00023 13.274V21.5C6.00022 21.971 6.13324 22.4323 6.38396 22.831C6.63468 23.2297 6.99291 23.5494 7.41739 23.7534C7.84187 23.9574 8.31533 24.0373 8.78325 23.984C9.25117 23.9307 9.69452 23.7463 10.0622 23.452L11.6882 22.152C11.7768 22.0813 11.8868 22.0427 12.0002 22.0427C12.1136 22.0427 12.2236 22.0813 12.3122 22.152L13.9382 23.452C14.3059 23.7463 14.7493 23.9307 15.2172 23.984C15.6851 24.0373 16.1586 23.9574 16.5831 23.7534C17.0075 23.5494 17.3658 23.2297 17.6165 22.831C17.8672 22.4323 18.0002 21.971 18.0002 21.5V13.274C19.2885 11.8192 19.9999 9.94325 20.0002 8.00001V8.00001ZM12.0002 2.00001C13.1869 2.00001 14.347 2.35191 15.3336 3.01119C16.3203 3.67048 17.0894 4.60755 17.5435 5.70391C17.9976 6.80027 18.1164 8.00667 17.8849 9.17055C17.6534 10.3344 17.082 11.4035 16.2429 12.2427C15.4038 13.0818 14.3347 13.6532 13.1708 13.8847C12.0069 14.1162 10.8005 13.9974 9.70412 13.5433C8.60777 13.0892 7.6707 12.3201 7.01141 11.3334C6.35212 10.3467 6.00023 9.1867 6.00023 8.00001C6.00181 6.4092 6.63446 4.884 7.75934 3.75913C8.88421 2.63425 10.4094 2.0016 12.0002 2.00001V2.00001ZM15.7172 21.948C15.6326 21.9899 15.5377 22.0066 15.4439 21.9959C15.3501 21.9853 15.2613 21.9478 15.1882 21.888L13.5622 20.588C13.1197 20.2315 12.5685 20.0371 12.0002 20.0371C11.432 20.0371 10.8808 20.2315 10.4382 20.588L8.81322 21.888C8.73985 21.9469 8.65134 21.9839 8.55788 21.9948C8.46441 22.0056 8.36978 21.9899 8.28487 21.9493C8.19995 21.9088 8.12819 21.8452 8.07784 21.7657C8.02749 21.6862 8.00058 21.5941 8.00023 21.5V14.918C9.21419 15.6266 10.5946 16 12.0002 16C13.4059 16 14.7863 15.6266 16.0002 14.918V21.5C16.0013 21.594 15.9752 21.6864 15.925 21.7659C15.8748 21.8454 15.8026 21.9086 15.7172 21.948V21.948Z" fill="#FFAA00"/>
</g>
<defs>
<clipPath id="clip0_7_30">
<rect width="24" height="24" fill="white"/>
</clipPath>
</defs>
</svg>
