<svg width="24" height="24" viewBox="0 0 24 24" fill="none" xmlns="http://www.w3.org/2000/svg">
<g clip-path="url(#clip0_7_38)">
<path d="M18.9998 14.0069C18.9999 12.8552 18.7158 11.7214 18.1728 10.7058C17.6298 9.69018 16.8446 8.82426 15.8868 8.18477C14.929 7.54528 13.8283 7.15197 12.6821 7.03971C11.536 6.92746 10.3798 7.09972 9.31617 7.54123C8.25252 7.98273 7.31423 8.67985 6.58449 9.57078C5.85474 10.4617 5.35608 11.5189 5.13271 12.6487C4.90934 13.7785 4.96817 14.9459 5.30397 16.0475C5.63977 17.1491 6.24218 18.1508 7.05778 18.9639L11.9998 23.7999L16.9498 18.9589C17.6022 18.3101 18.1193 17.5384 18.4712 16.6884C18.8231 15.8383 19.0027 14.9269 18.9998 14.0069V14.0069ZM11.9998 20.9999L8.46378 17.5419C7.76485 16.8429 7.28876 15.9525 7.09565 14.9832C6.90253 14.0138 7.00107 13.0089 7.37881 12.0955C7.75654 11.1821 8.39653 10.4012 9.21791 9.85132C10.0393 9.30148 11.0052 9.00742 11.9936 9.00631C12.9821 9.00519 13.9487 9.29706 14.7713 9.84504C15.5939 10.393 16.2356 11.1725 16.6154 12.0851C16.9952 12.9976 17.0961 14.0023 16.9051 14.9721C16.7142 15.9419 16.2401 16.8334 15.5428 17.5339L11.9998 20.9999ZM11.9998 10.9999C11.4064 10.9999 10.8264 11.1758 10.3331 11.5055C9.83972 11.8351 9.45521 12.3036 9.22814 12.8518C9.00108 13.4 8.94167 14.0032 9.05743 14.5851C9.17318 15.1671 9.4589 15.7016 9.87846 16.1212C10.298 16.5407 10.8326 16.8265 11.4145 16.9422C11.9965 17.058 12.5997 16.9986 13.1478 16.7715C13.696 16.5444 14.1645 16.1599 14.4942 15.6666C14.8238 15.1732 14.9998 14.5932 14.9998 13.9999C14.9998 13.2042 14.6837 12.4412 14.1211 11.8785C13.5585 11.3159 12.7954 10.9999 11.9998 10.9999V10.9999ZM23.9998 10.0459V23.9999H14.6528L16.6998 21.9999H21.9998V10.0429C22.0003 9.89103 21.966 9.7411 21.8994 9.60465C21.8328 9.46819 21.7358 9.34886 21.6158 9.25586L12.6158 2.21186C12.4399 2.07433 12.2231 1.99961 11.9998 1.99961C11.7765 1.99961 11.5597 2.07433 11.3838 2.21186L2.38378 9.25386C2.26367 9.34722 2.16658 9.4669 2.10001 9.60369C2.03343 9.74049 1.99914 9.89073 1.99978 10.0429V21.9999H7.29978L9.34478 23.9999H-0.000218544V10.0429C-0.00141747 9.58727 0.101687 9.13745 0.301195 8.72786C0.500703 8.31827 0.79132 7.95978 1.15078 7.67986L10.1508 0.637861C10.6788 0.224274 11.3301 -0.000465393 12.0008 -0.000465393C12.6715 -0.000465393 13.3228 0.224274 13.8508 0.637861L22.8508 7.68186C23.2098 7.96157 23.5001 8.31979 23.6992 8.72904C23.8984 9.13829 24.0012 9.58772 23.9998 10.0429V10.0459Z" fill="#FFAA00"/>
</g>
<defs>
<clipPath id="clip0_7_38">
<rect width="24" height="24" fill="white"/>
</clipPath>
</defs>
</svg>
