<svg width="24" height="24" viewBox="0 0 24 24" fill="none" xmlns="http://www.w3.org/2000/svg">
<g clip-path="url(#clip0_7_42)">
<path d="M5.45445 9.65383C5.23343 7.54084 4.01346 6.31783 2.61846 6.31783V6.31984C2.53428 6.31975 2.45018 6.32406 2.36646 6.33283C0.869463 6.48681 -0.199521 7.98081 0.0324629 10.2198C0.256479 12.3618 1.55145 13.9998 2.97448 13.9998C3.03893 14 3.10339 13.9966 3.16746 13.9899C4.66746 13.8338 5.68845 11.8898 5.45445 9.65383ZM2.95845 11.9878C2.37387 11.4966 2.09281 10.8078 2.02146 10.0118C2.02146 9.50823 2.01668 9.01136 2.24046 8.56379C2.36482 8.32989 2.51646 8.32581 2.57445 8.31981L2.61865 8.31906C2.95563 8.31906 3.36443 8.89478 3.46545 9.86078C3.53463 10.6132 3.42799 11.386 2.95845 11.9878Z" fill="#FFAA00"/>
<path d="M8.4672 8.45002C8.53821 8.45002 8.6082 8.45002 8.67921 8.439C10.3262 8.26702 11.4522 6.13102 11.1952 3.669C10.9522 1.34602 9.6102 0 8.07621 0C7.98401 9.375e-05 7.8919 0.0050625 7.80021 0.015C6.15223 0.186 4.97421 1.82902 5.23123 4.29202C5.47821 6.648 6.90021 8.45002 8.4672 8.45002ZM7.49121 2.36002C7.59195 2.1615 7.78517 2.02641 8.00623 2.00002C8.02953 1.99856 8.05292 1.99856 8.07621 2.00002C8.54023 2.00002 9.0762 2.64502 9.20623 3.87703C9.29965 4.59361 9.18729 5.32195 8.88223 5.97703C8.70021 6.32203 8.51721 6.44203 8.46725 6.44705C8.21023 6.44705 7.38326 5.63306 7.22023 4.08103C7.11598 3.49317 7.21137 2.88736 7.49121 2.36002Z" fill="#FFAA00"/>
<path d="M15.3648 8.439C15.4358 8.44598 15.5067 8.45002 15.5768 8.45002C17.1418 8.45002 18.5668 6.65002 18.8128 4.29202C19.0698 1.82902 17.8918 0.186 16.2458 0.015C16.1538 0.0050625 16.0613 4.6875e-05 15.9688 0C14.4338 0 13.0918 1.34602 12.8488 3.669C12.5918 6.13102 13.7178 8.26898 15.3648 8.439ZM14.8388 3.876C14.9668 2.64502 15.5008 2.00002 15.9688 2.00002C15.9918 1.99852 16.0148 1.99852 16.0378 2.00002C16.2586 2.02617 16.4518 2.16089 16.5528 2.35903C16.8337 2.88605 16.9292 3.49219 16.8238 4.08005C16.6618 5.63203 15.8338 6.44606 15.5728 6.44606C15.5268 6.44606 15.3438 6.32105 15.1618 5.97605C14.8566 5.32097 14.7446 4.59248 14.8388 3.876Z" fill="#FFAA00"/>
<path d="M12.0009 11C7.45891 11 3.00091 15.641 2.99491 20.369C2.87092 23.568 5.59492 24.727 8.89492 23.547C10.9067 22.861 13.0892 22.861 15.1009 23.547C15.876 23.8087 16.6838 23.9612 17.5009 24C20.3939 24 21.0009 22.025 21.0009 20.369C21.0009 15.641 16.5429 11 12.0009 11ZM12.0009 21C9.74692 20.643 4.77691 23.833 5.00092 20.369C5.00092 16.719 8.53394 13 12.0009 13C15.4679 13 19.0009 16.7191 19.0009 20.369C19.2269 23.83 14.2659 20.647 12.0009 21Z" fill="#FFAA00"/>
<path d="M21.9714 7.39071L21.971 7.39268C21.8891 7.37313 21.8062 7.35799 21.7227 7.34716C20.2306 7.1516 18.8458 8.35868 18.5549 10.5908C18.2786 12.7267 19.1608 14.6193 20.5454 14.9476C20.6081 14.9626 20.6715 14.9742 20.7355 14.9824C22.231 15.1766 23.673 13.5207 23.9612 11.291C24.2337 9.18405 23.3288 7.71255 21.9714 7.39071ZM21.9781 11.0336C21.8719 11.7815 21.5898 12.5089 20.994 12.9862C20.5386 12.3733 20.424 11.6383 20.5382 10.8473C20.6544 10.3573 20.7644 9.87274 21.0854 9.48893C21.2604 9.29004 21.4089 9.32102 21.4667 9.32857L21.5098 9.33809C21.8378 9.4158 22.1027 10.0703 21.9781 11.0336Z" fill="#FFAA00"/>
</g>
<defs>
<clipPath id="clip0_7_42">
<rect width="24" height="24" fill="white"/>
</clipPath>
</defs>
</svg>
