<svg width="72" height="72" viewBox="0 0 72 72" fill="none" xmlns="http://www.w3.org/2000/svg">
<circle cx="36" cy="36" r="25" fill="#FFF2B3"/>
<path d="M31.2273 43.3158C31.7796 43.3158 32.2273 42.8681 32.2273 42.3158C32.2273 41.7635 31.7796 41.3158 31.2273 41.3158V43.3158ZM30.5455 34.2632V35.2632H31.5455V34.2632H30.5455ZM41.4545 34.2632H40.4545V35.2632H41.4545V34.2632ZM40.7727 41.3158C40.2204 41.3158 39.7727 41.7635 39.7727 42.3158C39.7727 42.8681 40.2204 43.3158 40.7727 43.3158V41.3158ZM35 45C35 45.5523 35.4477 46 36 46C36.5523 46 37 45.5523 37 45H35ZM37 36.9474C37 36.3951 36.5523 35.9474 36 35.9474C35.4477 35.9474 35 36.3951 35 36.9474H37ZM36.7015 37.6601C37.0951 37.2727 37.1001 36.6395 36.7127 36.2459C36.3253 35.8523 35.6922 35.8473 35.2985 36.2347L36.7015 37.6601ZM32.5713 38.9189C32.1777 39.3063 32.1726 39.9394 32.56 40.333C32.9474 40.7267 33.5806 40.7317 33.9742 40.3443L32.5713 38.9189ZM36.7015 36.2347C36.3078 35.8473 35.6747 35.8523 35.2873 36.2459C34.8999 36.6395 34.9049 37.2727 35.2985 37.6601L36.7015 36.2347ZM38.0258 40.3443C38.4194 40.7317 39.0526 40.7267 39.44 40.333C39.8274 39.9394 39.8223 39.3063 39.4287 38.9189L38.0258 40.3443ZM31.2273 41.3158H30.0909V43.3158H31.2273V41.3158ZM30.0909 41.3158C28.3688 41.3158 27 39.9459 27 38.2895H25C25 41.0804 27.2943 43.3158 30.0909 43.3158V41.3158ZM27 38.2895C27 36.633 28.3688 35.2632 30.0909 35.2632V33.2632C27.2943 33.2632 25 35.4986 25 38.2895H27ZM30.0909 35.2632H30.5455V33.2632H30.0909V35.2632ZM31.5455 34.2632V33.3684H29.5455V34.2632H31.5455ZM31.5455 33.3684C31.5455 30.9708 33.5248 29 36 29V27C32.4503 27 29.5455 29.8363 29.5455 33.3684H31.5455ZM36 29C38.4752 29 40.4545 30.9708 40.4545 33.3684H42.4545C42.4545 29.8363 39.5497 27 36 27V29ZM40.4545 33.3684V34.2632H42.4545V33.3684H40.4545ZM41.4545 35.2632H41.9091V33.2632H41.4545V35.2632ZM41.9091 35.2632C43.6312 35.2632 45 36.633 45 38.2895H47C47 35.4986 44.7057 33.2632 41.9091 33.2632V35.2632ZM45 38.2895C45 39.9459 43.6312 41.3158 41.9091 41.3158V43.3158C44.7057 43.3158 47 41.0804 47 38.2895H45ZM41.9091 41.3158H40.7727V43.3158H41.9091V41.3158ZM37 45V36.9474H35V45H37ZM35.2985 36.2347L32.5713 38.9189L33.9742 40.3443L36.7015 37.6601L35.2985 36.2347ZM35.2985 37.6601L38.0258 40.3443L39.4287 38.9189L36.7015 36.2347L35.2985 37.6601Z" fill="#FFAA00"/>
<path d="M1 36C1 55.33 16.67 71 36 71C55.33 71 71 55.33 71 36C71 16.67 55.33 1 36 1" stroke="#FFAA00" stroke-width="2" stroke-linecap="round" stroke-linejoin="round"/>
</svg>
