<svg width="60" height="60" viewBox="0 0 60 60" fill="none" xmlns="http://www.w3.org/2000/svg">
<g id="Icon">
<circle id="Background" cx="30" cy="30" r="30" fill="#F2F6FF"/>
<g id="Icon_2">
<path id="Shape" fill-rule="evenodd" clip-rule="evenodd" d="M25.7188 22.1521H35.2812C36.1614 22.1521 36.875 22.8747 36.875 23.7662V37.3978L31.3618 33.8084H31.3618C30.8368 33.4667 30.1632 33.4667 29.6382 33.8084L24.125 37.3978V23.7662C24.125 22.8747 24.8385 22.1521 25.7188 22.1521ZM22 23.7662C22 21.6862 23.6649 20 25.7188 20H35.2812C37.3351 20 39 21.6862 39 23.7662V38.3833C39 39.6603 37.605 40.4316 36.5445 39.741L36.5445 39.7409L36.5445 39.741L37.4064 38.3833L37.6937 37.9307L36.875 37.3978V38.3833C36.875 37.9577 37.34 37.7006 37.6936 37.9308L37.4063 38.3833L36.5445 39.7409L30.5 35.8058L30.7872 35.6188C30.6129 35.7323 30.3895 35.7327 30.2148 35.6201L30.5 35.8058L24.4556 39.741C23.3949 40.4316 22 39.6603 22 38.3833V23.7662ZM24.125 37.3978L23.3065 37.9308C23.66 37.7006 24.125 37.9577 24.125 38.3833V37.3978Z" fill="#234CAD"/>
</g>
</g>
</svg>
